#!OML:ASF X:\für Bonn\!DataBase\2005_08_11_Bastian_Final\c3d\Bastian.ASF
:FULLY-SPECIFIED
:DEGREES
132
root -1.58887 17.2489 1.87034 175.99 -6.30884 -174.759
lowerback 16.9232 -1.04498 0.0159008
upperback 4.11494 -1.89235 0.898999
thorax -5.04784 -1.16843 1.35862
lowerneck -12.884 -4.93898 -3.17023
upperneck -3.8358 -7.19696 11.7003
head 1.64471 -3.7095 4.0338
rclavicle -3.17062e-014 -3.97569e-015
rhumerus 71.8905 22.571 7.31883
rradius 37.2801
rwrist -60.7656
rhand -48.0148 -6.21714
rfingers 7.12502
rthumb -20.6826 -35.1351
lclavicle -3.17062e-014 -3.97569e-015
lhumerus 77.8914 -20.4542 -38.7129
lradius 30.9992
lwrist 26.5788
lhand -44.0521 20.2324
lfingers 7.12502
lthumb -16.8713 49.5195
rfemur -14.4441 -4.26665 25.8484
rtibia 45.3761
rfoot -21.2755 -4.30647
rtoes -2.25453
lfemur -11.5597 1.89547 -14.9421
ltibia 39.6632
lfoot -17.8216 -7.07405
ltoes -12.3637
133
root -1.5889 17.2938 1.85406 176.106 -6.26595 -174.739
lowerback 16.5613 -1.05783 0.000313212
upperback 4.06012 -1.89522 0.882099
thorax -4.91212 -1.16252 1.33865
lowerneck -12.7525 -4.91518 -3.17833
upperneck -3.76385 -7.16227 11.7479
head 1.64585 -3.68865 4.05709
rclavicle 1.63003e-014 3.18055e-015
rhumerus 71.9321 22.6084 7.23102
rradius 37.1597
rwrist -60.5779
rhand -47.8255 -6.18716
rfingers 7.12502
rthumb -20.5007 -35.1248
lclavicle 1.63003e-014 3.18055e-015
lhumerus 77.9287 -20.421 -39.029
lradius 31.0685
lwrist 26.6318
lhand -43.9291 19.9743
lfingers 7.12502
lthumb -16.7529 49.2715
rfemur -14.0678 -3.67095 25.9741
rtibia 44.6119
rfoot -21.0047 -4.86924
rtoes -2.16971
lfemur -11.0125 1.74376 -14.9635
ltibia 38.6218
lfoot -17.589 -6.6614
ltoes -13.5962
134
root -1.58873 17.3299 1.83726 176.222 -6.20413 -174.694
lowerback 16.1867 -1.05887 -0.00816358
upperback 4.00467 -1.87998 0.899732
thorax -4.76915 -1.14805 1.3472
lowerneck -12.5901 -4.90828 -3.24366
upperneck -3.70649 -7.13615 11.7744
head 1.63873 -3.6715 4.08403
rclavicle 1.0635e-014 -3.26007e-014
rhumerus 71.9445 22.6018 7.18884
rradius 37.0743
rwrist -60.3076
rhand -47.5699 -6.26101
rfingers 7.12502
rthumb -20.2551 -35.2249
lclavicle 1.0635e-014 -3.26007e-014
lhumerus 77.9958 -20.3778 -39.4466
lradius 31.1561
lwrist 26.8519
lhand -43.8486 19.8039
lfingers 7.12502
lthumb -16.6754 49.1076
rfemur -13.7143 -2.9854 26.1462
rtibia 43.9063
rfoot -20.7948 -5.51796
rtoes -2.15519
lfemur -10.5485 1.61973 -14.9519
ltibia 37.761
lfoot -17.4348 -6.27883
ltoes -14.7519
135
root -1.58848 17.3577 1.82026 176.315 -6.1654 -174.627
lowerback 15.8178 -1.07699 0.0445935
upperback 3.97004 -1.88213 0.885981
thorax -4.60931 -1.144 1.29133
lowerneck -12.4578 -4.8954 -3.23998
upperneck -3.68673 -7.11819 11.8194
head 1.62268 -3.66304 4.10318
rclavicle 6.36111e-015 -1.11319e-014
rhumerus 71.9748 22.5277 7.18276
rradius 36.9886
rwrist -60.1528
rhand -47.3633 -6.42525
rfingers 7.12502
rthumb -20.0565 -35.4101
lclavicle 6.36111e-015 -1.11319e-014
lhumerus 78.0235 -20.2937 -39.8075
lradius 31.2526
lwrist 27.0351
lhand -43.7271 19.6537
lfingers 7.12502
lthumb -16.5584 48.9673
rfemur -13.3557 -2.18528 26.3576
rtibia 43.2501
rfoot -20.6161 -6.30475
rtoes -1.99283
lfemur -10.1566 1.46063 -14.9162
ltibia 37.0689
lfoot -17.3303 -5.92578
ltoes -15.7098
136
root -1.58799 17.3775 1.80337 176.419 -6.11442 -174.581
lowerback 15.4328 -1.08934 0.062706
upperback 3.93528 -1.88189 0.885764
thorax -4.43916 -1.13848 1.26841
lowerneck -12.3218 -4.88422 -3.27998
upperneck -3.66398 -7.09383 11.8557
head 1.608 -3.65001 4.12824
rclavicle -3.4191e-014 1.59028e-014
rhumerus 71.9913 22.4315 7.21484
rradius 36.9316
rwrist -59.9847
rhand -47.1809 -6.55663
rfingers 7.12502
rthumb -19.8811 -35.5597
lclavicle -3.4191e-014 1.59028e-014
lhumerus 78.0121 -20.2324 -40.1079
lradius 31.3552
lwrist 27.2107
lhand -43.6207 19.5958
lfingers 7.12502
lthumb -16.456 48.9178
rfemur -13.0288 -1.37436 26.5535
rtibia 42.6406
rfoot -20.4845 -7.09952
rtoes -2.05156
lfemur -9.85179 1.29693 -14.9011
ltibia 36.5362
lfoot -17.3107 -5.59589
ltoes -16.4102
137
root -1.58679 17.3906 1.78649 176.504 -6.05792 -174.517
lowerback 15.0638 -1.09518 0.121309
upperback 3.911 -1.86965 0.873511
thorax -4.26809 -1.12812 1.2082
lowerneck -12.2533 -4.87868 -3.25499
upperneck -3.57857 -7.08323 12.1961
head 1.50076 -3.63089 3.83623
rclavicle -7.15625e-015 2.38542e-014
rhumerus 71.9645 22.291 7.26785
rradius 36.9106
rwrist -59.8565
rhand -47.0348 -6.73971
rfingers 7.12502
rthumb -19.7407 -35.7573
lclavicle -7.15625e-015 2.38542e-014
lhumerus 77.9754 -20.154 -40.2734
lradius 31.4417
lwrist 27.2522
lhand -43.475 19.6342
lfingers 7.12502
lthumb -16.3158 48.9679
rfemur -12.7184 -0.513714 26.7792
rtibia 42.092
rfoot -20.3755 -7.946
rtoes -2.02957
lfemur -9.60243 1.19946 -14.8484
ltibia 36.1385
lfoot -17.3138 -5.37738
ltoes -16.806
138
root -1.58609 17.3971 1.7698 176.593 -6.01134 -174.425
lowerback 14.6805 -1.12179 0.204357
upperback 3.8896 -1.88152 0.881842
thorax -4.08548 -1.13 1.15981
lowerneck -12.0569 -4.86814 -3.37157
upperneck -3.65749 -7.05185 12.3341
head 1.45499 -3.62107 3.90419
rclavicle -1.3418e-014 1.66979e-014
rhumerus 71.9999 22.1211 7.37956
rradius 36.906
rwrist -59.7935
rhand -46.9263 -6.92723
rfingers 7.12502
rthumb -19.6364 -35.9555
lclavicle -1.3418e-014 1.66979e-014
lhumerus 77.9047 -20.1262 -40.3718
lradius 31.4961
lwrist 27.3445
lhand -43.3649 19.6896
lfingers 7.12502
lthumb -16.2097 49.0319
rfemur -12.4571 0.283928 27.0303
rtibia 41.6227
rfoot -20.3252 -8.77671
rtoes -2.18031
lfemur -9.42683 1.18292 -14.751
ltibia 35.8529
lfoot -17.3435 -5.26757
ltoes -16.8926
139
root -1.5845 17.3973 1.75405 176.658 -5.94492 -174.383
lowerback 14.329 -1.12237 0.264985
upperback 3.89059 -1.86793 0.849244
thorax -3.89744 -1.12042 1.07738
lowerneck -11.8374 -4.87782 -3.4655
upperneck -3.7992 -7.05237 12.5019
head 1.39003 -3.63276 3.97699
rclavicle -1.33186e-014 1.51076e-014
rhumerus 71.956 21.9214 7.45869
rradius 36.906
rwrist -59.7592
rhand -46.8606 -7.09284
rfingers 7.12502
rthumb -19.5732 -36.1276
lclavicle -1.33186e-014 1.51076e-014
lhumerus 77.8395 -20.0518 -40.3713
lradius 31.5303
lwrist 27.307
lhand -43.2386 19.838
lfingers 7.12502
lthumb -16.0881 49.1902
rfemur -12.2158 1.05287 27.2202
rtibia 41.2469
rfoot -20.3162 -9.5193
rtoes -2.14408
lfemur -9.27346 1.15725 -14.7009
ltibia 35.6488
lfoot -17.3752 -5.18146
ltoes -16.6364
140
root -1.58328 17.3903 1.73844 176.611 -5.88073 -174.382
lowerback 14.0857 -1.12519 0.280488
upperback 3.93459 -1.87221 0.811077
thorax -3.7213 -1.12288 1.02057
lowerneck -11.6071 -4.8773 -3.56676
upperneck -3.96058 -7.03668 12.6595
head 1.31598 -3.63795 4.04964
rclavicle 1.43125e-014 6.36111e-015
rhumerus 71.9438 21.7015 7.53932
rradius 36.9305
rwrist -59.7609
rhand -46.8798 -7.23436
rfingers 7.12502
rthumb -19.5917 -36.2672
lclavicle 1.43125e-014 6.36111e-015
lhumerus 77.7183 -20.0157 -40.1987
lradius 31.5139
lwrist 27.1284
lhand -43.1202 20.0692
lfingers 7.12502
lthumb -15.9741 49.4305
rfemur -11.8902 1.65412 27.3422
rtibia 40.9596
rfoot -20.3912 -10.0996
rtoes -2.17697
lfemur -9.04629 1.27896 -14.6797
ltibia 35.5256
lfoot -17.4404 -5.25379
ltoes -16.4908
141
root -1.58128 17.3794 1.72354 176.505 -5.79573 -174.404
lowerback 13.9313 -1.10841 0.249342
upperback 3.97822 -1.85808 0.796648
thorax -3.59169 -1.11707 1.0148
lowerneck -11.3055 -4.89076 -3.78382
upperneck -4.14648 -7.02265 12.8876
head 1.23104 -3.64398 4.16434
rclavicle -2.0773e-014 -7.95139e-016
rhumerus 71.9673 21.4824 7.80729
rradius 37.0049
rwrist -59.8884
rhand -46.8886 -7.42627
rfingers 7.12502
rthumb -19.6002 -36.4582
lclavicle -2.0773e-014 -7.95139e-016
lhumerus 77.5704 -20.0436 -39.8295
lradius 31.4866
lwrist 26.9604
lhand -43.0298 20.2024
lfingers 7.12502
lthumb -15.887 49.5707
rfemur -11.5525 2.0601 27.417
rtibia 40.7474
rfoot -20.5265 -10.4921
rtoes -2.3361
lfemur -8.80991 1.42106 -14.6704
ltibia 35.4846
lfoot -17.5085 -5.35942
ltoes -16.0498
142
root -1.57866 17.3666 1.70943 176.412 -5.73333 -174.473
lowerback 13.7711 -1.09023 0.184872
upperback 4.03827 -1.84895 0.761377
thorax -3.44153 -1.11435 1.00645
lowerneck -10.9769 -4.9031 -4.00418
upperneck -4.38935 -7.00766 13.1431
head 1.12635 -3.65449 4.28973
rclavicle 1.32192e-014 -1.59028e-015
rhumerus 71.9618 21.2565 8.08846
rradius 37.0997
rwrist -60.05
rhand -46.9627 -7.57098
rfingers 7.12502
rthumb -19.6714 -36.5957
lclavicle 1.32192e-014 -1.59028e-015
lhumerus 77.4103 -20.0691 -39.2647
lradius 31.4022
lwrist 26.5476
lhand -42.9216 20.5291
lfingers 7.12502
lthumb -15.7828 49.9057
rfemur -11.2633 2.28144 27.4173
rtibia 40.5979
rfoot -20.7455 -10.7137
rtoes -2.4214
lfemur -8.64949 1.68984 -14.698
ltibia 35.5184
lfoot -17.5772 -5.55736
ltoes -15.8636
143
root -1.5765 17.3509 1.69731 176.294 -5.61223 -174.542
lowerback 13.6579 -1.05141 0.134991
upperback 4.11379 -1.81405 0.711277
thorax -3.30193 -1.10034 0.971545
lowerneck -10.6799 -4.92466 -4.17602
upperneck -4.6026 -7.01355 13.3779
head 1.03446 -3.67459 4.39883
rclavicle 1.38155e-014 6.36111e-015
rhumerus 71.938 21.0243 8.40941
rradius 37.2451
rwrist -60.3269
rhand -47.0674 -7.69125
rfingers 7.12502
rthumb -19.7721 -36.7056
lclavicle 1.38155e-014 6.36111e-015
lhumerus 77.2454 -20.1085 -38.6473
lradius 31.3068
lwrist 26.196
lhand -42.8919 20.813
lfingers 7.12502
lthumb -15.7542 50.1918
rfemur -10.9858 2.39947 27.3935
rtibia 40.4992
rfoot -20.9733 -10.7923
rtoes -2.61845
lfemur -8.49689 2.02344 -14.713
ltibia 35.619
lfoot -17.6645 -5.80117
ltoes -15.5752
144
root -1.57456 17.3354 1.68649 176.17 -5.4913 -174.679
lowerback 13.5955 -1.0038 0.00495219
upperback 4.18076 -1.77774 0.667268
thorax -3.19645 -1.08565 0.98988
lowerneck -10.4249 -4.94644 -4.38606
upperneck -4.75571 -7.01432 13.5855
head 0.966588 -3.68593 4.50446
rclavicle -5.76476e-015 -3.97569e-015
rhumerus 71.9725 20.836 8.88333
rradius 37.4284
rwrist -60.7192
rhand -47.2106 -7.76378
rfingers 7.12502
rthumb -19.9097 -36.7639
lclavicle -5.76476e-015 -3.97569e-015
lhumerus 77.0532 -20.1572 -38.0021
lradius 31.2569
lwrist 25.9157
lhand -42.8792 21.0912
lfingers 7.12502
lthumb -15.7421 50.471
rfemur -10.7774 2.45721 27.2779
rtibia 40.4726
rfoot -21.1814 -10.7842
rtoes -2.82483
lfemur -8.33941 2.36417 -14.8032
ltibia 35.7379
lfoot -17.7387 -6.0241
ltoes -15.1678
145
root -1.57187 17.321 1.67508 176.052 -5.40262 -174.79
lowerback 13.5291 -0.97438 -0.0958916
upperback 4.24645 -1.76123 0.615941
thorax -3.09095 -1.08071 0.987297
lowerneck -10.19 -4.95348 -4.51428
upperneck -4.89903 -7.00713 13.7594
head 0.899536 -3.6948 4.58656
rclavicle 1.27222e-014 2.38542e-015
rhumerus 72.0342 20.6847 9.2897
rradius 37.6053
rwrist -61.1388
rhand -47.3875 -7.83237
rfingers 7.12502
rthumb -20.0797 -36.8147
lclavicle 1.27222e-014 2.38542e-015
lhumerus 76.8711 -20.1743 -37.5685
lradius 31.2836
lwrist 25.8997
lhand -42.9337 21.3159
lfingers 7.12502
lthumb -15.7945 50.6916
rfemur -10.6151 2.39821 27.1724
rtibia 40.5169
rfoot -21.3296 -10.6713
rtoes -3.01058
lfemur -8.19335 2.64599 -14.8626
ltibia 35.8541
lfoot -17.814 -6.27202
ltoes -14.7096
146
root -1.56817 17.3091 1.66495 175.907 -5.31615 -174.949
lowerback 13.5101 -0.925655 -0.254607
upperback 4.335 -1.73108 0.562672
thorax -2.986 -1.07115 1.01425
lowerneck -10.0256 -4.97451 -4.64354
upperneck -5.01414 -7.0208 13.9231
head 0.85344 -3.71097 4.66249
rclavicle 3.46879e-014 0
rhumerus 72.0976 20.5008 9.80905
rradius 37.8138
rwrist -61.7003
rhand -47.5873 -7.84227
rfingers 7.12502
rthumb -20.2718 -36.8044
lclavicle 3.46879e-014 0
lhumerus 76.7059 -20.1724 -37.1125
lradius 31.3359
lwrist 25.9754
lhand -43.0029 21.5256
lfingers 7.12502
lthumb -15.8611 50.896
rfemur -10.4867 2.26088 27.0079
rtibia 40.6501
rfoot -21.4368 -10.5044
rtoes -3.46922
lfemur -7.98622 2.93576 -14.968
ltibia 35.9317
lfoot -17.885 -6.50132
ltoes -14.265
